<svg width="24" height="24" viewBox="0 0 24 24" fill="none" xmlns="http://www.w3.org/2000/svg">
<mask id="mask0_1438_2706" style="mask-type:alpha" maskUnits="userSpaceOnUse" x="0" y="0" width="24" height="24">
<rect width="24" height="24" fill="#D9D9D9"/>
</mask>
<g mask="url(#mask0_1438_2706)">
<path d="M12 20.325C11.7667 20.325 11.5292 20.2834 11.2875 20.2C11.0458 20.1167 10.8333 19.9834 10.65 19.8L8.925 18.225C7.15833 16.6084 5.5625 15.0042 4.1375 13.4125C2.7125 11.8209 2 10.0667 2 8.15002C2 6.58336 2.525 5.27502 3.575 4.22502C4.625 3.17502 5.93333 2.65002 7.5 2.65002C8.38333 2.65002 9.21667 2.83752 10 3.21252C10.7833 3.58752 11.45 4.10002 12 4.75002C12.55 4.10002 13.2167 3.58752 14 3.21252C14.7833 2.83752 15.6167 2.65002 16.5 2.65002C18.0667 2.65002 19.375 3.17502 20.425 4.22502C21.475 5.27502 22 6.58336 22 8.15002C22 10.0667 21.2917 11.825 19.875 13.425C18.4583 15.025 16.85 16.6334 15.05 18.25L13.35 19.8C13.1667 19.9834 12.9542 20.1167 12.7125 20.2C12.4708 20.2834 12.2333 20.325 12 20.325ZM11.05 6.75002C10.5667 6.06669 10.05 5.54586 9.5 5.18752C8.95 4.82919 8.28333 4.65002 7.5 4.65002C6.5 4.65002 5.66667 4.98336 5 5.65002C4.33333 6.31669 4 7.15002 4 8.15002C4 9.01669 4.30833 9.93753 4.925 10.9125C5.54167 11.8875 6.27917 12.8334 7.1375 13.75C7.99583 14.6667 8.87917 15.525 9.7875 16.325C10.6958 17.125 11.4333 17.7834 12 18.3C12.5667 17.7834 13.3042 17.125 14.2125 16.325C15.1208 15.525 16.0042 14.6667 16.8625 13.75C17.7208 12.8334 18.4583 11.8875 19.075 10.9125C19.6917 9.93753 20 9.01669 20 8.15002C20 7.15002 19.6667 6.31669 19 5.65002C18.3333 4.98336 17.5 4.65002 16.5 4.65002C15.7167 4.65002 15.05 4.82919 14.5 5.18752C13.95 5.54586 13.4333 6.06669 12.95 6.75002C12.8333 6.91669 12.6917 7.04169 12.525 7.12502C12.3583 7.20836 12.1833 7.25002 12 7.25002C11.8167 7.25002 11.6417 7.20836 11.475 7.12502C11.3083 7.04169 11.1667 6.91669 11.05 6.75002Z" fill="#999999"/>
</g>
</svg>
