<svg width="64" height="64" viewBox="0 0 64 64" fill="none" xmlns="http://www.w3.org/2000/svg">
<mask id="mask0_1438_187" style="mask-type:alpha" maskUnits="userSpaceOnUse" x="0" y="0" width="64" height="64">
<rect width="64" height="64" fill="#D9D9D9"/>
</mask>
<g mask="url(#mask0_1438_187)">
<path d="M28.4 42L41.4 33.6667C42.0223 33.2667 42.3334 32.7112 42.3334 32C42.3334 31.2889 42.0223 30.7334 41.4 30.3334L28.4 22C27.7334 21.5556 27.0556 21.5223 26.3667 21.9C25.6778 22.2778 25.3334 22.8667 25.3334 23.6667V40.3334C25.3334 41.1334 25.6778 41.7223 26.3667 42.1C27.0556 42.4778 27.7334 42.4445 28.4 42ZM32 58.6667C28.3111 58.6667 24.8445 57.9667 21.6 56.5667C18.3556 55.1667 15.5334 53.2667 13.1334 50.8667C10.7334 48.4667 8.83337 45.6445 7.43337 42.4C6.03337 39.1556 5.33337 35.6889 5.33337 32C5.33337 28.3111 6.03337 24.8445 7.43337 21.6C8.83337 18.3556 10.7334 15.5334 13.1334 13.1334C15.5334 10.7334 18.3556 8.83337 21.6 7.43337C24.8445 6.03337 28.3111 5.33337 32 5.33337C35.6889 5.33337 39.1556 6.03337 42.4 7.43337C45.6445 8.83337 48.4667 10.7334 50.8667 13.1334C53.2667 15.5334 55.1667 18.3556 56.5667 21.6C57.9667 24.8445 58.6667 28.3111 58.6667 32C58.6667 35.6889 57.9667 39.1556 56.5667 42.4C55.1667 45.6445 53.2667 48.4667 50.8667 50.8667C48.4667 53.2667 45.6445 55.1667 42.4 56.5667C39.1556 57.9667 35.6889 58.6667 32 58.6667ZM32 53.3334C37.9556 53.3334 43 51.2667 47.1334 47.1334C51.2667 43 53.3334 37.9556 53.3334 32C53.3334 26.0445 51.2667 21 47.1334 16.8667C43 12.7334 37.9556 10.6667 32 10.6667C26.0445 10.6667 21 12.7334 16.8667 16.8667C12.7334 21 10.6667 26.0445 10.6667 32C10.6667 37.9556 12.7334 43 16.8667 47.1334C21 51.2667 26.0445 53.3334 32 53.3334Z" fill="white"/>
</g>
</svg>
